<svg xmlns="http://www.w3.org/2000/svg" xmlns:xlink="http://www.w3.org/1999/xlink" width="100" zoomAndPan="magnify" viewBox="0 0 75 30.000001" height="40" preserveAspectRatio="xMidYMid meet" version="1.0"><defs><g/><clipPath id="0e5f4c3c20"><path d="M 2.515625 4.378906 L 18.484375 4.378906 L 18.484375 21.070312 L 2.515625 21.070312 Z M 2.515625 4.378906 " clip-rule="nonzero"/></clipPath><clipPath id="b8b4665de7"><path d="M 5 4.378906 L 11 4.378906 L 11 13 L 5 13 Z M 5 4.378906 " clip-rule="nonzero"/></clipPath><clipPath id="7d8c4b309b"><path d="M 10.671875 10.320312 C 10.476562 10.125 10.304688 9.917969 10.152344 9.691406 C 10.003906 9.464844 9.875 9.226562 9.769531 8.972656 C 9.664062 8.722656 9.585938 8.464844 9.53125 8.195312 C 9.480469 7.929688 9.453125 7.660156 9.449219 7.386719 C 9.449219 7.117188 9.476562 6.84375 9.527344 6.578125 C 9.578125 6.3125 9.65625 6.050781 9.761719 5.800781 C 9.863281 5.546875 9.988281 5.308594 10.140625 5.082031 C 10.289062 4.851562 10.460938 4.640625 10.652344 4.449219 L 5.226562 9.84375 L 8.167969 12.785156 Z M 10.671875 10.320312 " clip-rule="nonzero"/></clipPath><linearGradient x1="42.625499" gradientTransform="matrix(1.633305, 0, 0, 1.633305, -57.494046, -39.823534)" y1="27.997503" x2="38.405998" gradientUnits="userSpaceOnUse" y2="32.217001" id="06e1abb443"><stop stop-opacity="1" stop-color="rgb(58.81958%, 99.609375%, 71.369934%)" offset="0"/><stop stop-opacity="1" stop-color="rgb(58.81958%, 99.609375%, 71.369934%)" offset="0.25"/><stop stop-opacity="1" stop-color="rgb(58.81958%, 99.609375%, 71.369934%)" offset="0.3125"/><stop stop-opacity="1" stop-color="rgb(58.81958%, 99.609375%, 71.369934%)" offset="0.34375"/><stop stop-opacity="1" stop-color="rgb(58.81958%, 99.609375%, 71.369934%)" offset="0.359375"/><stop stop-opacity="1" stop-color="rgb(58.885193%, 99.609375%, 71.315002%)" offset="0.367188"/><stop stop-opacity="1" stop-color="rgb(59.2453%, 99.613953%, 71.018982%)" offset="0.371094"/><stop stop-opacity="1" stop-color="rgb(59.539795%, 99.61853%, 70.776367%)" offset="0.375"/><stop stop-opacity="1" stop-color="rgb(59.83429%, 99.621582%, 70.533752%)" offset="0.378906"/><stop stop-opacity="1" stop-color="rgb(60.128784%, 99.62616%, 70.292664%)" offset="0.382812"/><stop stop-opacity="1" stop-color="rgb(60.423279%, 99.629211%, 70.050049%)" offset="0.386719"/><stop stop-opacity="1" stop-color="rgb(60.717773%, 99.633789%, 69.807434%)" offset="0.390625"/><stop stop-opacity="1" stop-color="rgb(61.012268%, 99.636841%, 69.564819%)" offset="0.394531"/><stop stop-opacity="1" stop-color="rgb(61.306763%, 99.639893%, 69.322205%)" offset="0.398438"/><stop stop-opacity="1" stop-color="rgb(61.601257%, 99.642944%, 69.07959%)" offset="0.402344"/><stop stop-opacity="1" stop-color="rgb(61.895752%, 99.647522%, 68.838501%)" offset="0.40625"/><stop stop-opacity="1" stop-color="rgb(62.190247%, 99.650574%, 68.595886%)" offset="0.410156"/><stop stop-opacity="1" stop-color="rgb(62.484741%, 99.655151%, 68.353271%)" offset="0.414062"/><stop stop-opacity="1" stop-color="rgb(62.779236%, 99.658203%, 68.110657%)" offset="0.417969"/><stop stop-opacity="1" stop-color="rgb(63.07373%, 99.662781%, 67.868042%)" offset="0.421875"/><stop stop-opacity="1" stop-color="rgb(63.368225%, 99.665833%, 67.625427%)" offset="0.425781"/><stop stop-opacity="1" stop-color="rgb(63.66272%, 99.67041%, 67.384338%)" offset="0.429688"/><stop stop-opacity="1" stop-color="rgb(63.957214%, 99.673462%, 67.141724%)" offset="0.433594"/><stop stop-opacity="1" stop-color="rgb(64.251709%, 99.67804%, 66.899109%)" offset="0.4375"/><stop stop-opacity="1" stop-color="rgb(64.546204%, 99.681091%, 66.656494%)" offset="0.441406"/><stop stop-opacity="1" stop-color="rgb(64.842224%, 99.685669%, 66.413879%)" offset="0.445312"/><stop stop-opacity="1" stop-color="rgb(65.136719%, 99.688721%, 66.171265%)" offset="0.449219"/><stop stop-opacity="1" stop-color="rgb(65.431213%, 99.691772%, 65.92865%)" offset="0.453125"/><stop stop-opacity="1" stop-color="rgb(65.725708%, 99.694824%, 65.686035%)" offset="0.457031"/><stop stop-opacity="1" stop-color="rgb(66.020203%, 99.699402%, 65.444946%)" offset="0.460938"/><stop stop-opacity="1" stop-color="rgb(66.314697%, 99.702454%, 65.202332%)" offset="0.464844"/><stop stop-opacity="1" stop-color="rgb(66.609192%, 99.707031%, 64.959717%)" offset="0.46875"/><stop stop-opacity="1" stop-color="rgb(66.903687%, 99.710083%, 64.717102%)" offset="0.472656"/><stop stop-opacity="1" stop-color="rgb(67.198181%, 99.714661%, 64.474487%)" offset="0.476562"/><stop stop-opacity="1" stop-color="rgb(67.492676%, 99.717712%, 64.231873%)" offset="0.480469"/><stop stop-opacity="1" stop-color="rgb(67.78717%, 99.72229%, 63.990784%)" offset="0.484375"/><stop stop-opacity="1" stop-color="rgb(68.081665%, 99.725342%, 63.748169%)" offset="0.488281"/><stop stop-opacity="1" stop-color="rgb(68.37616%, 99.729919%, 63.505554%)" offset="0.492188"/><stop stop-opacity="1" stop-color="rgb(68.670654%, 99.732971%, 63.262939%)" offset="0.496094"/><stop stop-opacity="1" stop-color="rgb(68.965149%, 99.737549%, 63.020325%)" offset="0.5"/><stop stop-opacity="1" stop-color="rgb(69.259644%, 99.740601%, 62.77771%)" offset="0.503906"/><stop stop-opacity="1" stop-color="rgb(69.554138%, 99.743652%, 62.536621%)" offset="0.507812"/><stop stop-opacity="1" stop-color="rgb(69.848633%, 99.746704%, 62.294006%)" offset="0.511719"/><stop stop-opacity="1" stop-color="rgb(70.143127%, 99.751282%, 62.051392%)" offset="0.515625"/><stop stop-opacity="1" stop-color="rgb(70.437622%, 99.754333%, 61.808777%)" offset="0.519531"/><stop stop-opacity="1" stop-color="rgb(70.733643%, 99.758911%, 61.566162%)" offset="0.523438"/><stop stop-opacity="1" stop-color="rgb(71.028137%, 99.761963%, 61.323547%)" offset="0.527344"/><stop stop-opacity="1" stop-color="rgb(71.322632%, 99.766541%, 61.082458%)" offset="0.53125"/><stop stop-opacity="1" stop-color="rgb(71.617126%, 99.769592%, 60.839844%)" offset="0.535156"/><stop stop-opacity="1" stop-color="rgb(71.911621%, 99.77417%, 60.597229%)" offset="0.539062"/><stop stop-opacity="1" stop-color="rgb(72.206116%, 99.777222%, 60.354614%)" offset="0.542969"/><stop stop-opacity="1" stop-color="rgb(72.50061%, 99.781799%, 60.112%)" offset="0.546875"/><stop stop-opacity="1" stop-color="rgb(72.795105%, 99.784851%, 59.869385%)" offset="0.550781"/><stop stop-opacity="1" stop-color="rgb(73.0896%, 99.789429%, 59.628296%)" offset="0.554688"/><stop stop-opacity="1" stop-color="rgb(73.384094%, 99.79248%, 59.385681%)" offset="0.558594"/><stop stop-opacity="1" stop-color="rgb(73.678589%, 99.797058%, 59.143066%)" offset="0.5625"/><stop stop-opacity="1" stop-color="rgb(73.973083%, 99.80011%, 58.900452%)" offset="0.566406"/><stop stop-opacity="1" stop-color="rgb(74.267578%, 99.803162%, 58.657837%)" offset="0.570312"/><stop stop-opacity="1" stop-color="rgb(74.562073%, 99.806213%, 58.415222%)" offset="0.574219"/><stop stop-opacity="1" stop-color="rgb(74.856567%, 99.810791%, 58.174133%)" offset="0.578125"/><stop stop-opacity="1" stop-color="rgb(75.151062%, 99.813843%, 57.931519%)" offset="0.582031"/><stop stop-opacity="1" stop-color="rgb(75.445557%, 99.81842%, 57.688904%)" offset="0.585937"/><stop stop-opacity="1" stop-color="rgb(75.740051%, 99.821472%, 57.446289%)" offset="0.589844"/><stop stop-opacity="1" stop-color="rgb(76.034546%, 99.82605%, 57.203674%)" offset="0.59375"/><stop stop-opacity="1" stop-color="rgb(76.329041%, 99.829102%, 56.96106%)" offset="0.597656"/><stop stop-opacity="1" stop-color="rgb(76.623535%, 99.833679%, 56.719971%)" offset="0.601562"/><stop stop-opacity="1" stop-color="rgb(76.91803%, 99.836731%, 56.477356%)" offset="0.605469"/><stop stop-opacity="1" stop-color="rgb(77.21405%, 99.841309%, 56.234741%)" offset="0.609375"/><stop stop-opacity="1" stop-color="rgb(77.508545%, 99.84436%, 55.992126%)" offset="0.613281"/><stop stop-opacity="1" stop-color="rgb(77.80304%, 99.848938%, 55.749512%)" offset="0.617188"/><stop stop-opacity="1" stop-color="rgb(78.097534%, 99.85199%, 55.506897%)" offset="0.621094"/><stop stop-opacity="1" stop-color="rgb(78.392029%, 99.855042%, 55.265808%)" offset="0.625"/><stop stop-opacity="1" stop-color="rgb(78.686523%, 99.858093%, 55.023193%)" offset="0.628906"/><stop stop-opacity="1" stop-color="rgb(78.981018%, 99.862671%, 54.780579%)" offset="0.632812"/><stop stop-opacity="1" stop-color="rgb(79.275513%, 99.865723%, 54.537964%)" offset="0.636719"/><stop stop-opacity="1" stop-color="rgb(79.570007%, 99.8703%, 54.295349%)" offset="0.640625"/><stop stop-opacity="1" stop-color="rgb(79.864502%, 99.873352%, 54.052734%)" offset="0.644531"/><stop stop-opacity="1" stop-color="rgb(80.158997%, 99.87793%, 53.811646%)" offset="0.648437"/><stop stop-opacity="1" stop-color="rgb(80.453491%, 99.880981%, 53.569031%)" offset="0.652344"/><stop stop-opacity="1" stop-color="rgb(80.747986%, 99.885559%, 53.326416%)" offset="0.65625"/><stop stop-opacity="1" stop-color="rgb(81.04248%, 99.888611%, 53.083801%)" offset="0.660156"/><stop stop-opacity="1" stop-color="rgb(81.336975%, 99.893188%, 52.841187%)" offset="0.664062"/><stop stop-opacity="1" stop-color="rgb(81.63147%, 99.89624%, 52.598572%)" offset="0.667969"/><stop stop-opacity="1" stop-color="rgb(81.925964%, 99.900818%, 52.357483%)" offset="0.671875"/><stop stop-opacity="1" stop-color="rgb(82.220459%, 99.90387%, 52.114868%)" offset="0.675781"/><stop stop-opacity="1" stop-color="rgb(82.514954%, 99.906921%, 51.872253%)" offset="0.679688"/><stop stop-opacity="1" stop-color="rgb(82.809448%, 99.909973%, 51.629639%)" offset="0.683594"/><stop stop-opacity="1" stop-color="rgb(83.103943%, 99.914551%, 51.387024%)" offset="0.6875"/><stop stop-opacity="1" stop-color="rgb(83.398438%, 99.917603%, 51.144409%)" offset="0.691406"/><stop stop-opacity="1" stop-color="rgb(83.694458%, 99.92218%, 50.90332%)" offset="0.695312"/><stop stop-opacity="1" stop-color="rgb(83.988953%, 99.925232%, 50.660706%)" offset="0.699219"/><stop stop-opacity="1" stop-color="rgb(84.283447%, 99.92981%, 50.418091%)" offset="0.703125"/><stop stop-opacity="1" stop-color="rgb(84.577942%, 99.932861%, 50.175476%)" offset="0.707031"/><stop stop-opacity="1" stop-color="rgb(84.872437%, 99.937439%, 49.932861%)" offset="0.710937"/><stop stop-opacity="1" stop-color="rgb(85.166931%, 99.940491%, 49.690247%)" offset="0.714844"/><stop stop-opacity="1" stop-color="rgb(85.461426%, 99.945068%, 49.449158%)" offset="0.71875"/><stop stop-opacity="1" stop-color="rgb(85.75592%, 99.94812%, 49.206543%)" offset="0.722656"/><stop stop-opacity="1" stop-color="rgb(86.050415%, 99.952698%, 48.963928%)" offset="0.726562"/><stop stop-opacity="1" stop-color="rgb(86.34491%, 99.95575%, 48.721313%)" offset="0.730469"/><stop stop-opacity="1" stop-color="rgb(86.639404%, 99.958801%, 48.478699%)" offset="0.734375"/><stop stop-opacity="1" stop-color="rgb(86.933899%, 99.961853%, 48.236084%)" offset="0.738281"/><stop stop-opacity="1" stop-color="rgb(87.228394%, 99.966431%, 47.994995%)" offset="0.742188"/><stop stop-opacity="1" stop-color="rgb(87.522888%, 99.969482%, 47.75238%)" offset="0.746094"/><stop stop-opacity="1" stop-color="rgb(87.817383%, 99.97406%, 47.509766%)" offset="0.75"/><stop stop-opacity="1" stop-color="rgb(88.111877%, 99.977112%, 47.267151%)" offset="0.753906"/><stop stop-opacity="1" stop-color="rgb(88.406372%, 99.981689%, 47.024536%)" offset="0.757812"/><stop stop-opacity="1" stop-color="rgb(88.700867%, 99.984741%, 46.781921%)" offset="0.761719"/><stop stop-opacity="1" stop-color="rgb(88.995361%, 99.989319%, 46.540833%)" offset="0.765625"/><stop stop-opacity="1" stop-color="rgb(89.289856%, 99.992371%, 46.298218%)" offset="0.769531"/><stop stop-opacity="1" stop-color="rgb(89.585876%, 99.996948%, 46.055603%)" offset="0.773437"/><stop stop-opacity="1" stop-color="rgb(89.692688%, 99.998474%, 45.967102%)" offset="0.78125"/><stop stop-opacity="1" stop-color="rgb(89.7995%, 100%, 45.878601%)" offset="0.8125"/><stop stop-opacity="1" stop-color="rgb(89.7995%, 100%, 45.878601%)" offset="0.875"/><stop stop-opacity="1" stop-color="rgb(89.7995%, 100%, 45.878601%)" offset="1"/></linearGradient><clipPath id="4e52171501"><path d="M 10 12 L 17 12 L 17 21.070312 L 10 21.070312 Z M 10 12 " clip-rule="nonzero"/></clipPath><clipPath id="9e79fdb633"><path d="M 13.148438 12.769531 L 10.671875 15.25 C 10.863281 15.441406 11.035156 15.652344 11.1875 15.878906 C 11.339844 16.105469 11.46875 16.347656 11.574219 16.597656 C 11.679688 16.851562 11.757812 17.113281 11.8125 17.378906 C 11.863281 17.648438 11.890625 17.917969 11.890625 18.191406 C 11.890625 18.464844 11.863281 18.738281 11.8125 19.003906 C 11.757812 19.273438 11.679688 19.535156 11.574219 19.785156 C 11.46875 20.039062 11.339844 20.28125 11.1875 20.507812 C 11.035156 20.734375 10.863281 20.945312 10.671875 21.136719 L 16.09375 15.714844 Z M 13.148438 12.769531 " clip-rule="nonzero"/></clipPath><linearGradient x1="40.853109" gradientTransform="matrix(1.633305, 0, 0, 1.633305, -57.494046, -39.823534)" y1="36.401886" x2="45.054498" gradientUnits="userSpaceOnUse" y2="32.200505" id="29f73f8eb4"><stop stop-opacity="1" stop-color="rgb(58.81958%, 99.609375%, 71.369934%)" offset="0"/><stop stop-opacity="1" stop-color="rgb(58.81958%, 99.609375%, 71.369934%)" offset="0.25"/><stop stop-opacity="1" stop-color="rgb(58.81958%, 99.609375%, 71.369934%)" offset="0.3125"/><stop stop-opacity="1" stop-color="rgb(58.81958%, 99.609375%, 71.369934%)" offset="0.34375"/><stop stop-opacity="1" stop-color="rgb(58.81958%, 99.609375%, 71.369934%)" offset="0.359375"/><stop stop-opacity="1" stop-color="rgb(58.81958%, 99.609375%, 71.369934%)" offset="0.367188"/><stop stop-opacity="1" stop-color="rgb(59.049988%, 99.612427%, 71.179199%)" offset="0.371094"/><stop stop-opacity="1" stop-color="rgb(59.281921%, 99.615479%, 70.988464%)" offset="0.375"/><stop stop-opacity="1" stop-color="rgb(59.57489%, 99.61853%, 70.74585%)" offset="0.378906"/><stop stop-opacity="1" stop-color="rgb(59.869385%, 99.623108%, 70.504761%)" offset="0.382812"/><stop stop-opacity="1" stop-color="rgb(60.162354%, 99.62616%, 70.262146%)" offset="0.386719"/><stop stop-opacity="1" stop-color="rgb(60.456848%, 99.629211%, 70.021057%)" offset="0.390625"/><stop stop-opacity="1" stop-color="rgb(60.749817%, 99.632263%, 69.778442%)" offset="0.394531"/><stop stop-opacity="1" stop-color="rgb(61.044312%, 99.636841%, 69.537354%)" offset="0.398438"/><stop stop-opacity="1" stop-color="rgb(61.338806%, 99.639893%, 69.296265%)" offset="0.402344"/><stop stop-opacity="1" stop-color="rgb(61.633301%, 99.64447%, 69.055176%)" offset="0.40625"/><stop stop-opacity="1" stop-color="rgb(61.92627%, 99.647522%, 68.812561%)" offset="0.410156"/><stop stop-opacity="1" stop-color="rgb(62.220764%, 99.6521%, 68.571472%)" offset="0.414062"/><stop stop-opacity="1" stop-color="rgb(62.513733%, 99.655151%, 68.328857%)" offset="0.417969"/><stop stop-opacity="1" stop-color="rgb(62.808228%, 99.659729%, 68.087769%)" offset="0.421875"/><stop stop-opacity="1" stop-color="rgb(63.101196%, 99.662781%, 67.845154%)" offset="0.425781"/><stop stop-opacity="1" stop-color="rgb(63.395691%, 99.667358%, 67.604065%)" offset="0.429688"/><stop stop-opacity="1" stop-color="rgb(63.68866%, 99.67041%, 67.36145%)" offset="0.433594"/><stop stop-opacity="1" stop-color="rgb(63.983154%, 99.674988%, 67.120361%)" offset="0.4375"/><stop stop-opacity="1" stop-color="rgb(64.276123%, 99.67804%, 66.877747%)" offset="0.441406"/><stop stop-opacity="1" stop-color="rgb(64.570618%, 99.681091%, 66.636658%)" offset="0.445313"/><stop stop-opacity="1" stop-color="rgb(64.865112%, 99.684143%, 66.394043%)" offset="0.449219"/><stop stop-opacity="1" stop-color="rgb(65.159607%, 99.688721%, 66.152954%)" offset="0.453125"/><stop stop-opacity="1" stop-color="rgb(65.452576%, 99.691772%, 65.910339%)" offset="0.457031"/><stop stop-opacity="1" stop-color="rgb(65.74707%, 99.69635%, 65.66925%)" offset="0.460938"/><stop stop-opacity="1" stop-color="rgb(66.040039%, 99.699402%, 65.426636%)" offset="0.464844"/><stop stop-opacity="1" stop-color="rgb(66.334534%, 99.703979%, 65.185547%)" offset="0.46875"/><stop stop-opacity="1" stop-color="rgb(66.627502%, 99.707031%, 64.942932%)" offset="0.472656"/><stop stop-opacity="1" stop-color="rgb(66.921997%, 99.711609%, 64.701843%)" offset="0.476563"/><stop stop-opacity="1" stop-color="rgb(67.214966%, 99.714661%, 64.459229%)" offset="0.480469"/><stop stop-opacity="1" stop-color="rgb(67.50946%, 99.719238%, 64.21814%)" offset="0.484375"/><stop stop-opacity="1" stop-color="rgb(67.802429%, 99.72229%, 63.975525%)" offset="0.488281"/><stop stop-opacity="1" stop-color="rgb(68.096924%, 99.725342%, 63.734436%)" offset="0.492188"/><stop stop-opacity="1" stop-color="rgb(68.391418%, 99.728394%, 63.493347%)" offset="0.496094"/><stop stop-opacity="1" stop-color="rgb(68.685913%, 99.732971%, 63.252258%)" offset="0.5"/><stop stop-opacity="1" stop-color="rgb(68.978882%, 99.736023%, 63.009644%)" offset="0.503906"/><stop stop-opacity="1" stop-color="rgb(69.273376%, 99.740601%, 62.768555%)" offset="0.507813"/><stop stop-opacity="1" stop-color="rgb(69.566345%, 99.743652%, 62.52594%)" offset="0.511719"/><stop stop-opacity="1" stop-color="rgb(69.86084%, 99.74823%, 62.284851%)" offset="0.515625"/><stop stop-opacity="1" stop-color="rgb(70.153809%, 99.751282%, 62.042236%)" offset="0.519531"/><stop stop-opacity="1" stop-color="rgb(70.448303%, 99.755859%, 61.801147%)" offset="0.523438"/><stop stop-opacity="1" stop-color="rgb(70.741272%, 99.758911%, 61.558533%)" offset="0.527344"/><stop stop-opacity="1" stop-color="rgb(71.035767%, 99.763489%, 61.317444%)" offset="0.53125"/><stop stop-opacity="1" stop-color="rgb(71.328735%, 99.766541%, 61.074829%)" offset="0.535156"/><stop stop-opacity="1" stop-color="rgb(71.62323%, 99.771118%, 60.83374%)" offset="0.539062"/><stop stop-opacity="1" stop-color="rgb(71.917725%, 99.77417%, 60.591125%)" offset="0.542969"/><stop stop-opacity="1" stop-color="rgb(72.212219%, 99.777222%, 60.350037%)" offset="0.546875"/><stop stop-opacity="1" stop-color="rgb(72.505188%, 99.780273%, 60.107422%)" offset="0.550781"/><stop stop-opacity="1" stop-color="rgb(72.799683%, 99.784851%, 59.866333%)" offset="0.554688"/><stop stop-opacity="1" stop-color="rgb(73.092651%, 99.787903%, 59.623718%)" offset="0.558594"/><stop stop-opacity="1" stop-color="rgb(73.387146%, 99.79248%, 59.382629%)" offset="0.5625"/><stop stop-opacity="1" stop-color="rgb(73.680115%, 99.795532%, 59.140015%)" offset="0.566406"/><stop stop-opacity="1" stop-color="rgb(73.974609%, 99.80011%, 58.898926%)" offset="0.570312"/><stop stop-opacity="1" stop-color="rgb(74.267578%, 99.803162%, 58.656311%)" offset="0.574219"/><stop stop-opacity="1" stop-color="rgb(74.562073%, 99.807739%, 58.415222%)" offset="0.578125"/><stop stop-opacity="1" stop-color="rgb(74.855042%, 99.810791%, 58.174133%)" offset="0.582031"/><stop stop-opacity="1" stop-color="rgb(75.149536%, 99.815369%, 57.933044%)" offset="0.585938"/><stop stop-opacity="1" stop-color="rgb(75.444031%, 99.81842%, 57.69043%)" offset="0.589844"/><stop stop-opacity="1" stop-color="rgb(75.738525%, 99.821472%, 57.449341%)" offset="0.59375"/><stop stop-opacity="1" stop-color="rgb(76.031494%, 99.824524%, 57.206726%)" offset="0.597656"/><stop stop-opacity="1" stop-color="rgb(76.325989%, 99.829102%, 56.965637%)" offset="0.601562"/><stop stop-opacity="1" stop-color="rgb(76.618958%, 99.832153%, 56.723022%)" offset="0.605469"/><stop stop-opacity="1" stop-color="rgb(76.913452%, 99.836731%, 56.481934%)" offset="0.609375"/><stop stop-opacity="1" stop-color="rgb(77.206421%, 99.839783%, 56.239319%)" offset="0.613281"/><stop stop-opacity="1" stop-color="rgb(77.500916%, 99.84436%, 55.99823%)" offset="0.617187"/><stop stop-opacity="1" stop-color="rgb(77.793884%, 99.847412%, 55.755615%)" offset="0.621094"/><stop stop-opacity="1" stop-color="rgb(78.088379%, 99.85199%, 55.514526%)" offset="0.625"/><stop stop-opacity="1" stop-color="rgb(78.381348%, 99.855042%, 55.271912%)" offset="0.628906"/><stop stop-opacity="1" stop-color="rgb(78.675842%, 99.859619%, 55.030823%)" offset="0.632813"/><stop stop-opacity="1" stop-color="rgb(78.970337%, 99.862671%, 54.788208%)" offset="0.636719"/><stop stop-opacity="1" stop-color="rgb(79.264832%, 99.867249%, 54.547119%)" offset="0.640625"/><stop stop-opacity="1" stop-color="rgb(79.5578%, 99.8703%, 54.304504%)" offset="0.644531"/><stop stop-opacity="1" stop-color="rgb(79.852295%, 99.873352%, 54.063416%)" offset="0.648438"/><stop stop-opacity="1" stop-color="rgb(80.145264%, 99.876404%, 53.820801%)" offset="0.652344"/><stop stop-opacity="1" stop-color="rgb(80.439758%, 99.880981%, 53.579712%)" offset="0.65625"/><stop stop-opacity="1" stop-color="rgb(80.732727%, 99.884033%, 53.337097%)" offset="0.660156"/><stop stop-opacity="1" stop-color="rgb(81.027222%, 99.888611%, 53.096008%)" offset="0.664063"/><stop stop-opacity="1" stop-color="rgb(81.32019%, 99.891663%, 52.854919%)" offset="0.667969"/><stop stop-opacity="1" stop-color="rgb(81.614685%, 99.89624%, 52.613831%)" offset="0.671875"/><stop stop-opacity="1" stop-color="rgb(81.907654%, 99.899292%, 52.371216%)" offset="0.675781"/><stop stop-opacity="1" stop-color="rgb(82.202148%, 99.90387%, 52.130127%)" offset="0.679688"/><stop stop-opacity="1" stop-color="rgb(82.496643%, 99.906921%, 51.887512%)" offset="0.683594"/><stop stop-opacity="1" stop-color="rgb(82.791138%, 99.911499%, 51.646423%)" offset="0.6875"/><stop stop-opacity="1" stop-color="rgb(83.084106%, 99.914551%, 51.403809%)" offset="0.691406"/><stop stop-opacity="1" stop-color="rgb(83.378601%, 99.919128%, 51.16272%)" offset="0.695312"/><stop stop-opacity="1" stop-color="rgb(83.67157%, 99.92218%, 50.920105%)" offset="0.699219"/><stop stop-opacity="1" stop-color="rgb(83.966064%, 99.925232%, 50.679016%)" offset="0.703125"/><stop stop-opacity="1" stop-color="rgb(84.259033%, 99.928284%, 50.436401%)" offset="0.707031"/><stop stop-opacity="1" stop-color="rgb(84.553528%, 99.932861%, 50.195312%)" offset="0.710938"/><stop stop-opacity="1" stop-color="rgb(84.846497%, 99.935913%, 49.952698%)" offset="0.714844"/><stop stop-opacity="1" stop-color="rgb(85.140991%, 99.940491%, 49.711609%)" offset="0.71875"/><stop stop-opacity="1" stop-color="rgb(85.43396%, 99.943542%, 49.468994%)" offset="0.722656"/><stop stop-opacity="1" stop-color="rgb(85.728455%, 99.94812%, 49.227905%)" offset="0.726562"/><stop stop-opacity="1" stop-color="rgb(86.022949%, 99.951172%, 48.985291%)" offset="0.730469"/><stop stop-opacity="1" stop-color="rgb(86.317444%, 99.95575%, 48.744202%)" offset="0.734375"/><stop stop-opacity="1" stop-color="rgb(86.610413%, 99.958801%, 48.501587%)" offset="0.738281"/><stop stop-opacity="1" stop-color="rgb(86.904907%, 99.963379%, 48.260498%)" offset="0.742188"/><stop stop-opacity="1" stop-color="rgb(87.197876%, 99.966431%, 48.017883%)" offset="0.746094"/><stop stop-opacity="1" stop-color="rgb(87.492371%, 99.969482%, 47.776794%)" offset="0.75"/><stop stop-opacity="1" stop-color="rgb(87.785339%, 99.972534%, 47.535706%)" offset="0.753906"/><stop stop-opacity="1" stop-color="rgb(88.079834%, 99.977112%, 47.294617%)" offset="0.757813"/><stop stop-opacity="1" stop-color="rgb(88.372803%, 99.980164%, 47.052002%)" offset="0.761719"/><stop stop-opacity="1" stop-color="rgb(88.667297%, 99.984741%, 46.810913%)" offset="0.765625"/><stop stop-opacity="1" stop-color="rgb(88.960266%, 99.987793%, 46.568298%)" offset="0.769531"/><stop stop-opacity="1" stop-color="rgb(89.254761%, 99.992371%, 46.327209%)" offset="0.773438"/><stop stop-opacity="1" stop-color="rgb(89.526367%, 99.995422%, 46.102905%)" offset="0.777344"/><stop stop-opacity="1" stop-color="rgb(89.7995%, 100%, 45.878601%)" offset="0.78125"/><stop stop-opacity="1" stop-color="rgb(89.7995%, 100%, 45.878601%)" offset="0.8125"/><stop stop-opacity="1" stop-color="rgb(89.7995%, 100%, 45.878601%)" offset="0.875"/><stop stop-opacity="1" stop-color="rgb(89.7995%, 100%, 45.878601%)" offset="1"/></linearGradient><clipPath id="a6f5b82586"><path d="M 36 3 L 38.808594 3 L 38.808594 12 L 36 12 Z M 36 3 " clip-rule="nonzero"/></clipPath><clipPath id="78cd2a1b98"><rect x="0" width="39" y="0" height="16"/></clipPath><clipPath id="bec0699c6b"><path d="M 0.152344 1 L 3 1 L 3 4 L 0.152344 4 Z M 0.152344 1 " clip-rule="nonzero"/></clipPath><clipPath id="377b4bcb0e"><path d="M 29 1 L 30.578125 1 L 30.578125 4 L 29 4 Z M 29 1 " clip-rule="nonzero"/></clipPath><clipPath id="fd99828549"><rect x="0" width="31" y="0" height="5"/></clipPath></defs><g clip-path="url(#0e5f4c3c20)"><path fill="#e5ff75" d="M 18.566406 12.308594 L 10.671875 4.414062 L 2.773438 12.308594 C 2.644531 12.4375 2.582031 12.59375 2.582031 12.777344 C 2.582031 12.957031 2.644531 13.113281 2.773438 13.246094 L 10.671875 21.140625 L 18.566406 13.246094 C 18.695312 13.113281 18.757812 12.957031 18.757812 12.777344 C 18.757812 12.59375 18.695312 12.4375 18.566406 12.308594 Z M 10.671875 15.25 L 8.199219 12.777344 L 10.671875 10.300781 L 13.144531 12.777344 Z M 10.671875 15.25 " fill-opacity="1" fill-rule="nonzero"/></g><g clip-path="url(#b8b4665de7)"><g clip-path="url(#7d8c4b309b)"><path fill="url(#06e1abb443)" d="M 5.226562 4.449219 L 5.226562 12.785156 L 10.671875 12.785156 L 10.671875 4.449219 Z M 5.226562 4.449219 " fill-rule="nonzero"/></g></g><g clip-path="url(#4e52171501)"><g clip-path="url(#9e79fdb633)"><path fill="url(#29f73f8eb4)" d="M 10.671875 12.769531 L 10.671875 21.070312 L 16.09375 21.070312 L 16.09375 12.769531 Z M 10.671875 12.769531 " fill-rule="nonzero"/></g></g><g transform="matrix(1, 0, 0, 1, 20, 5)"><g clip-path="url(#78cd2a1b98)"><g fill="#fefefe" fill-opacity="1"><g transform="translate(0.519441, 11.22551)"><g><path d="M 0.828125 0 L 0.828125 -6.953125 L 3.59375 -6.953125 C 4.320312 -6.953125 4.960938 -6.804688 5.515625 -6.515625 C 6.066406 -6.222656 6.492188 -5.816406 6.796875 -5.296875 C 7.097656 -4.773438 7.25 -4.171875 7.25 -3.484375 C 7.25 -2.785156 7.097656 -2.175781 6.796875 -1.65625 C 6.492188 -1.132812 6.066406 -0.726562 5.515625 -0.4375 C 4.960938 -0.144531 4.320312 0 3.59375 0 Z M 2.421875 -1.453125 L 3.5625 -1.453125 C 3.96875 -1.453125 4.328125 -1.535156 4.640625 -1.703125 C 4.953125 -1.867188 5.195312 -2.101562 5.375 -2.40625 C 5.550781 -2.71875 5.640625 -3.078125 5.640625 -3.484375 C 5.640625 -3.890625 5.550781 -4.242188 5.375 -4.546875 C 5.195312 -4.847656 4.945312 -5.082031 4.625 -5.25 C 4.3125 -5.414062 3.945312 -5.5 3.53125 -5.5 L 2.421875 -5.5 Z M 2.421875 -1.453125 "/></g></g></g><g fill="#fefefe" fill-opacity="1"><g transform="translate(7.441847, 11.22551)"><g><path d="M 0.75 0 L 0.75 -5.21875 L 2.265625 -5.21875 L 2.265625 0 Z M 0.53125 -6.90625 C 0.53125 -7.1875 0.617188 -7.410156 0.796875 -7.578125 C 0.984375 -7.753906 1.222656 -7.84375 1.515625 -7.84375 C 1.804688 -7.84375 2.039062 -7.753906 2.21875 -7.578125 C 2.394531 -7.410156 2.484375 -7.1875 2.484375 -6.90625 C 2.484375 -6.625 2.394531 -6.394531 2.21875 -6.21875 C 2.039062 -6.050781 1.804688 -5.96875 1.515625 -5.96875 C 1.222656 -5.96875 0.984375 -6.050781 0.796875 -6.21875 C 0.617188 -6.394531 0.53125 -6.625 0.53125 -6.90625 Z M 0.53125 -6.90625 "/></g></g></g><g fill="#fefefe" fill-opacity="1"><g transform="translate(9.716145, 11.22551)"><g><path d="M 2.25 0 L 0.09375 -5.21875 L 1.734375 -5.21875 L 2.328125 -3.578125 L 3.015625 -1.8125 L 3.703125 -3.578125 L 4.296875 -5.21875 L 5.9375 -5.21875 L 3.765625 0 Z M 2.25 0 "/></g></g></g><g fill="#fefefe" fill-opacity="1"><g transform="translate(14.999793, 11.22551)"><g><path d="M 0.78125 1.984375 L 0.78125 0.6875 L 1.375 0.6875 C 1.6875 0.6875 1.910156 0.632812 2.046875 0.53125 C 2.179688 0.4375 2.289062 0.265625 2.375 0.015625 L 2.4375 -0.171875 L 0.09375 -5.21875 L 1.765625 -5.21875 L 3.15625 -1.984375 L 3.640625 -3.3125 L 4.328125 -5.21875 L 5.953125 -5.21875 L 3.625 0.609375 C 3.488281 0.972656 3.328125 1.253906 3.140625 1.453125 C 2.960938 1.648438 2.742188 1.785156 2.484375 1.859375 C 2.222656 1.941406 1.890625 1.984375 1.484375 1.984375 Z M 0.78125 1.984375 "/></g></g></g><g fill="#fefefe" fill-opacity="1"><g transform="translate(20.283442, 11.22551)"><g><path d="M 2.5 0.09375 C 1.875 0.09375 1.382812 -0.046875 1.03125 -0.328125 C 0.675781 -0.617188 0.5 -1.015625 0.5 -1.515625 C 0.5 -2.003906 0.65625 -2.390625 0.96875 -2.671875 C 1.289062 -2.960938 1.726562 -3.109375 2.28125 -3.109375 L 4.15625 -3.109375 L 4.15625 -3.34375 C 4.15625 -3.601562 4.0625 -3.8125 3.875 -3.96875 C 3.695312 -4.125 3.457031 -4.203125 3.15625 -4.203125 C 2.914062 -4.203125 2.707031 -4.144531 2.53125 -4.03125 C 2.363281 -3.914062 2.253906 -3.769531 2.203125 -3.59375 L 0.75 -3.59375 C 0.84375 -4.15625 1.097656 -4.585938 1.515625 -4.890625 C 1.941406 -5.203125 2.488281 -5.359375 3.15625 -5.359375 C 3.9375 -5.359375 4.546875 -5.160156 4.984375 -4.765625 C 5.421875 -4.367188 5.640625 -3.828125 5.640625 -3.140625 L 5.640625 0 L 4.515625 0 L 4.359375 -0.609375 C 3.898438 -0.140625 3.28125 0.09375 2.5 0.09375 Z M 1.984375 -1.578125 C 1.984375 -1.398438 2.0625 -1.253906 2.21875 -1.140625 C 2.375 -1.035156 2.582031 -0.984375 2.84375 -0.984375 C 3.21875 -0.984375 3.53125 -1.09375 3.78125 -1.3125 C 4.03125 -1.53125 4.160156 -1.816406 4.171875 -2.171875 L 2.75 -2.171875 C 2.519531 -2.171875 2.332031 -2.113281 2.1875 -2 C 2.050781 -1.894531 1.984375 -1.753906 1.984375 -1.578125 Z M 1.984375 -1.578125 "/></g></g></g><g fill="#fefefe" fill-opacity="1"><g transform="translate(25.835251, 11.22551)"><g/></g></g><g fill="#fefefe" fill-opacity="1"><g transform="translate(27.42425, 11.22551)"><g><path d="M 2.765625 0.140625 C 2.285156 0.140625 1.867188 0.0664062 1.515625 -0.078125 C 1.160156 -0.234375 0.882812 -0.445312 0.6875 -0.71875 C 0.488281 -1 0.390625 -1.316406 0.390625 -1.671875 L 1.875 -1.671875 C 1.882812 -1.460938 1.96875 -1.296875 2.125 -1.171875 C 2.28125 -1.046875 2.5 -0.984375 2.78125 -0.984375 C 3.019531 -0.984375 3.203125 -1.023438 3.328125 -1.109375 C 3.460938 -1.203125 3.53125 -1.328125 3.53125 -1.484375 C 3.53125 -1.648438 3.441406 -1.785156 3.265625 -1.890625 C 3.085938 -2.003906 2.796875 -2.09375 2.390625 -2.15625 C 1.734375 -2.269531 1.25 -2.457031 0.9375 -2.71875 C 0.625 -2.988281 0.46875 -3.34375 0.46875 -3.78125 C 0.46875 -4.289062 0.65625 -4.679688 1.03125 -4.953125 C 1.414062 -5.222656 1.957031 -5.359375 2.65625 -5.359375 C 3.351562 -5.359375 3.898438 -5.207031 4.296875 -4.90625 C 4.691406 -4.613281 4.90625 -4.191406 4.9375 -3.640625 L 3.5 -3.640625 C 3.488281 -3.835938 3.40625 -3.988281 3.25 -4.09375 C 3.101562 -4.207031 2.90625 -4.265625 2.65625 -4.265625 C 2.425781 -4.265625 2.242188 -4.21875 2.109375 -4.125 C 1.984375 -4.039062 1.921875 -3.925781 1.921875 -3.78125 C 1.921875 -3.613281 2.003906 -3.484375 2.171875 -3.390625 C 2.347656 -3.304688 2.65625 -3.21875 3.09375 -3.125 C 4.382812 -2.875 5.03125 -2.320312 5.03125 -1.46875 C 5.03125 -0.96875 4.828125 -0.570312 4.421875 -0.28125 C 4.023438 0 3.472656 0.140625 2.765625 0.140625 Z M 2.765625 0.140625 "/></g></g></g><g fill="#fefefe" fill-opacity="1"><g transform="translate(32.111988, 11.22551)"><g><path d="M 0.75 0 L 0.75 -5.21875 L 1.875 -5.21875 L 2.078125 -4.515625 C 2.242188 -4.765625 2.453125 -4.941406 2.703125 -5.046875 C 2.960938 -5.160156 3.285156 -5.21875 3.671875 -5.21875 L 4.234375 -5.21875 L 4.234375 -3.84375 L 3.65625 -3.84375 C 3.226562 -3.84375 2.890625 -3.726562 2.640625 -3.5 C 2.390625 -3.269531 2.265625 -2.875 2.265625 -2.3125 L 2.265625 0 Z M 0.75 0 "/></g></g></g><g clip-path="url(#a6f5b82586)"><g fill="#fefefe" fill-opacity="1"><g transform="translate(35.935655, 11.22551)"><g><path d="M 0.75 0 L 0.75 -5.21875 L 2.265625 -5.21875 L 2.265625 0 Z M 0.53125 -6.90625 C 0.53125 -7.1875 0.617188 -7.410156 0.796875 -7.578125 C 0.984375 -7.753906 1.222656 -7.84375 1.515625 -7.84375 C 1.804688 -7.84375 2.039062 -7.753906 2.21875 -7.578125 C 2.394531 -7.410156 2.484375 -7.1875 2.484375 -6.90625 C 2.484375 -6.625 2.394531 -6.394531 2.21875 -6.21875 C 2.039062 -6.050781 1.804688 -5.96875 1.515625 -5.96875 C 1.222656 -5.96875 0.984375 -6.050781 0.796875 -6.21875 C 0.617188 -6.394531 0.53125 -6.625 0.53125 -6.90625 Z M 0.53125 -6.90625 "/></g></g></g></g></g></g><g transform="matrix(1, 0, 0, 1, 28, 17)"><g clip-path="url(#fd99828549)"><g clip-path="url(#bec0699c6b)"><g fill="#fefefe" fill-opacity="1"><g transform="translate(0.15832, 3.520514)"><g><path d="M 0.25 0 L 0.25 -1.6875 L 0.4375 -1.6875 L 1.109375 -0.6875 L 1.765625 -1.6875 L 1.953125 -1.6875 L 1.953125 0 L 1.75 0 L 1.75 -1.28125 L 1.1875 -0.453125 L 1.015625 -0.453125 L 0.453125 -1.296875 L 0.453125 0 Z M 0.25 0 "/></g></g></g></g><g fill="#fefefe" fill-opacity="1"><g transform="translate(2.326678, 3.520514)"><g><path d="M 0.25 0 L 0.25 -1.6875 L 1.265625 -1.6875 L 1.265625 -1.484375 L 0.453125 -1.484375 L 0.453125 -0.953125 L 1.203125 -0.953125 L 1.203125 -0.765625 L 0.453125 -0.765625 L 0.453125 -0.203125 L 1.296875 -0.203125 L 1.296875 0 Z M 0.25 0 "/></g></g></g><g fill="#fefefe" fill-opacity="1"><g transform="translate(3.741757, 3.520514)"><g><path d="M 0.25 0 L 0.25 -1.6875 L 0.890625 -1.6875 C 1.003906 -1.6875 1.101562 -1.660156 1.1875 -1.609375 C 1.28125 -1.566406 1.347656 -1.503906 1.390625 -1.421875 C 1.441406 -1.347656 1.46875 -1.253906 1.46875 -1.140625 C 1.46875 -1.003906 1.429688 -0.890625 1.359375 -0.796875 C 1.285156 -0.710938 1.191406 -0.65625 1.078125 -0.625 L 1.5 0 L 1.234375 0 L 0.828125 -0.609375 L 0.453125 -0.609375 L 0.453125 0 Z M 0.453125 -0.8125 L 0.859375 -0.8125 C 0.984375 -0.8125 1.078125 -0.835938 1.140625 -0.890625 C 1.210938 -0.953125 1.25 -1.035156 1.25 -1.140625 C 1.25 -1.242188 1.210938 -1.328125 1.140625 -1.390625 C 1.078125 -1.453125 0.984375 -1.484375 0.859375 -1.484375 L 0.453125 -1.484375 Z M 0.453125 -0.8125 "/></g></g></g><g fill="#fefefe" fill-opacity="1"><g transform="translate(5.344554, 3.520514)"><g><path d="M 0.25 0 L 0.25 -1.6875 L 0.4375 -1.6875 L 1.375 -0.359375 L 1.375 -1.6875 L 1.578125 -1.6875 L 1.578125 0 L 1.390625 0 L 0.453125 -1.3125 L 0.453125 0 Z M 0.25 0 "/></g></g></g><g fill="#fefefe" fill-opacity="1"><g transform="translate(7.137477, 3.520514)"><g/></g></g><g fill="#fefefe" fill-opacity="1"><g transform="translate(7.698199, 3.520514)"><g><path d="M 0.8125 0.03125 C 0.675781 0.03125 0.554688 0.0078125 0.453125 -0.03125 C 0.359375 -0.0820312 0.28125 -0.148438 0.21875 -0.234375 C 0.164062 -0.316406 0.140625 -0.410156 0.140625 -0.515625 L 0.359375 -0.515625 C 0.359375 -0.410156 0.398438 -0.328125 0.484375 -0.265625 C 0.566406 -0.203125 0.675781 -0.171875 0.8125 -0.171875 C 0.925781 -0.171875 1.015625 -0.191406 1.078125 -0.234375 C 1.148438 -0.285156 1.1875 -0.351562 1.1875 -0.4375 C 1.1875 -0.507812 1.148438 -0.570312 1.078125 -0.625 C 1.015625 -0.675781 0.910156 -0.71875 0.765625 -0.75 C 0.554688 -0.800781 0.398438 -0.863281 0.296875 -0.9375 C 0.203125 -1.019531 0.15625 -1.125 0.15625 -1.25 C 0.15625 -1.394531 0.207031 -1.507812 0.3125 -1.59375 C 0.425781 -1.675781 0.578125 -1.71875 0.765625 -1.71875 C 0.953125 -1.71875 1.097656 -1.671875 1.203125 -1.578125 C 1.316406 -1.484375 1.375 -1.351562 1.375 -1.1875 L 1.171875 -1.1875 C 1.171875 -1.289062 1.132812 -1.367188 1.0625 -1.421875 C 0.988281 -1.484375 0.890625 -1.515625 0.765625 -1.515625 C 0.640625 -1.515625 0.539062 -1.488281 0.46875 -1.4375 C 0.40625 -1.394531 0.375 -1.332031 0.375 -1.25 C 0.375 -1.175781 0.40625 -1.113281 0.46875 -1.0625 C 0.53125 -1.019531 0.644531 -0.984375 0.8125 -0.953125 C 1.03125 -0.890625 1.179688 -0.816406 1.265625 -0.734375 C 1.359375 -0.660156 1.40625 -0.5625 1.40625 -0.4375 C 1.40625 -0.289062 1.347656 -0.175781 1.234375 -0.09375 C 1.128906 -0.0078125 0.988281 0.03125 0.8125 0.03125 Z M 0.8125 0.03125 "/></g></g></g><g fill="#fefefe" fill-opacity="1"><g transform="translate(9.219172, 3.520514)"><g><path d="M 0.65625 0 L 0.65625 -1.484375 L 0.078125 -1.484375 L 0.078125 -1.6875 L 1.4375 -1.6875 L 1.4375 -1.484375 L 0.859375 -1.484375 L 0.859375 0 Z M 0.65625 0 "/></g></g></g><g fill="#fefefe" fill-opacity="1"><g transform="translate(10.699231, 3.520514)"><g><path d="M 0.046875 0 L 0.734375 -1.6875 L 0.9375 -1.6875 L 1.625 0 L 1.40625 0 L 1.234375 -0.375 L 0.421875 -0.375 L 0.265625 0 Z M 0.5 -0.578125 L 1.15625 -0.578125 L 0.828125 -1.390625 Z M 0.5 -0.578125 "/></g></g></g><g fill="#fefefe" fill-opacity="1"><g transform="translate(12.328502, 3.520514)"><g><path d="M 0.984375 0.03125 C 0.867188 0.03125 0.757812 0.0078125 0.65625 -0.03125 C 0.550781 -0.0703125 0.457031 -0.128906 0.375 -0.203125 C 0.300781 -0.285156 0.242188 -0.378906 0.203125 -0.484375 C 0.160156 -0.597656 0.140625 -0.71875 0.140625 -0.84375 C 0.140625 -0.96875 0.160156 -1.082031 0.203125 -1.1875 C 0.242188 -1.300781 0.300781 -1.394531 0.375 -1.46875 C 0.457031 -1.539062 0.550781 -1.597656 0.65625 -1.640625 C 0.757812 -1.691406 0.867188 -1.71875 0.984375 -1.71875 C 1.117188 -1.71875 1.242188 -1.691406 1.359375 -1.640625 C 1.472656 -1.585938 1.566406 -1.515625 1.640625 -1.421875 C 1.722656 -1.335938 1.78125 -1.234375 1.8125 -1.109375 L 1.59375 -1.109375 C 1.550781 -1.234375 1.472656 -1.328125 1.359375 -1.390625 C 1.253906 -1.460938 1.132812 -1.5 1 -1.5 C 0.875 -1.5 0.757812 -1.46875 0.65625 -1.40625 C 0.5625 -1.351562 0.488281 -1.273438 0.4375 -1.171875 C 0.382812 -1.078125 0.359375 -0.96875 0.359375 -0.84375 C 0.359375 -0.707031 0.382812 -0.585938 0.4375 -0.484375 C 0.488281 -0.390625 0.5625 -0.316406 0.65625 -0.265625 C 0.757812 -0.210938 0.875 -0.1875 1 -0.1875 C 1.144531 -0.1875 1.269531 -0.222656 1.375 -0.296875 C 1.488281 -0.367188 1.566406 -0.46875 1.609375 -0.59375 L 1.828125 -0.59375 C 1.796875 -0.46875 1.738281 -0.359375 1.65625 -0.265625 C 1.582031 -0.171875 1.488281 -0.0976562 1.375 -0.046875 C 1.257812 0.00390625 1.128906 0.03125 0.984375 0.03125 Z M 0.984375 0.03125 "/></g></g></g><g fill="#fefefe" fill-opacity="1"><g transform="translate(14.256197, 3.520514)"><g><path d="M 0.25 0 L 0.25 -1.6875 L 0.453125 -1.6875 L 0.453125 -0.953125 L 0.703125 -0.953125 C 0.816406 -0.953125 0.898438 -0.972656 0.953125 -1.015625 C 1.015625 -1.054688 1.0625 -1.125 1.09375 -1.21875 L 1.265625 -1.6875 L 1.484375 -1.6875 L 1.28125 -1.140625 C 1.257812 -1.078125 1.226562 -1.019531 1.1875 -0.96875 C 1.15625 -0.914062 1.117188 -0.875 1.078125 -0.84375 L 1.546875 0 L 1.3125 0 L 0.875 -0.765625 C 0.820312 -0.765625 0.765625 -0.765625 0.703125 -0.765625 L 0.453125 -0.765625 L 0.453125 0 Z M 0.25 0 "/></g></g></g><g fill="#fefefe" fill-opacity="1"><g transform="translate(15.866215, 3.520514)"><g/></g></g><g fill="#fefefe" fill-opacity="1"><g transform="translate(16.426937, 3.520514)"><g><path d="M 0.25 0 L 0.25 -1.6875 L 0.828125 -1.6875 C 1.003906 -1.6875 1.15625 -1.648438 1.28125 -1.578125 C 1.40625 -1.503906 1.503906 -1.40625 1.578125 -1.28125 C 1.648438 -1.15625 1.6875 -1.007812 1.6875 -0.84375 C 1.6875 -0.675781 1.648438 -0.53125 1.578125 -0.40625 C 1.503906 -0.28125 1.40625 -0.179688 1.28125 -0.109375 C 1.15625 -0.0351562 1.003906 0 0.828125 0 Z M 0.453125 -0.203125 L 0.828125 -0.203125 C 0.953125 -0.203125 1.0625 -0.226562 1.15625 -0.28125 C 1.257812 -0.332031 1.335938 -0.40625 1.390625 -0.5 C 1.441406 -0.601562 1.46875 -0.71875 1.46875 -0.84375 C 1.46875 -0.96875 1.441406 -1.078125 1.390625 -1.171875 C 1.335938 -1.273438 1.257812 -1.351562 1.15625 -1.40625 C 1.0625 -1.457031 0.945312 -1.484375 0.8125 -1.484375 L 0.453125 -1.484375 Z M 0.453125 -0.203125 "/></g></g></g><g fill="#fefefe" fill-opacity="1"><g transform="translate(18.222265, 3.520514)"><g><path d="M 0.25 0 L 0.25 -1.6875 L 1.265625 -1.6875 L 1.265625 -1.484375 L 0.453125 -1.484375 L 0.453125 -0.953125 L 1.203125 -0.953125 L 1.203125 -0.765625 L 0.453125 -0.765625 L 0.453125 -0.203125 L 1.296875 -0.203125 L 1.296875 0 Z M 0.25 0 "/></g></g></g><g fill="#fefefe" fill-opacity="1"><g transform="translate(19.637344, 3.520514)"><g><path d="M 0.71875 0 L 0.046875 -1.6875 L 0.265625 -1.6875 L 0.546875 -0.96875 L 0.8125 -0.3125 L 1.078125 -0.96875 L 1.359375 -1.6875 L 1.578125 -1.6875 L 0.90625 0 Z M 0.71875 0 "/></g></g></g><g fill="#fefefe" fill-opacity="1"><g transform="translate(21.220889, 3.520514)"><g><path d="M 0.25 0 L 0.25 -1.6875 L 1.265625 -1.6875 L 1.265625 -1.484375 L 0.453125 -1.484375 L 0.453125 -0.953125 L 1.203125 -0.953125 L 1.203125 -0.765625 L 0.453125 -0.765625 L 0.453125 -0.203125 L 1.296875 -0.203125 L 1.296875 0 Z M 0.25 0 "/></g></g></g><g fill="#fefefe" fill-opacity="1"><g transform="translate(22.635968, 3.520514)"><g><path d="M 0.25 0 L 0.25 -1.6875 L 0.453125 -1.6875 L 0.453125 -0.203125 L 1.28125 -0.203125 L 1.28125 0 Z M 0.25 0 "/></g></g></g><g fill="#fefefe" fill-opacity="1"><g transform="translate(23.949968, 3.520514)"><g><path d="M 1.015625 0.03125 C 0.835938 0.03125 0.679688 -0.00390625 0.546875 -0.078125 C 0.421875 -0.148438 0.320312 -0.253906 0.25 -0.390625 C 0.175781 -0.523438 0.140625 -0.675781 0.140625 -0.84375 C 0.140625 -1.007812 0.175781 -1.15625 0.25 -1.28125 C 0.320312 -1.414062 0.421875 -1.519531 0.546875 -1.59375 C 0.679688 -1.675781 0.835938 -1.71875 1.015625 -1.71875 C 1.179688 -1.71875 1.328125 -1.675781 1.453125 -1.59375 C 1.585938 -1.519531 1.691406 -1.414062 1.765625 -1.28125 C 1.847656 -1.15625 1.890625 -1.007812 1.890625 -0.84375 C 1.890625 -0.675781 1.847656 -0.523438 1.765625 -0.390625 C 1.691406 -0.253906 1.585938 -0.148438 1.453125 -0.078125 C 1.328125 -0.00390625 1.179688 0.03125 1.015625 0.03125 Z M 0.359375 -0.84375 C 0.359375 -0.707031 0.382812 -0.585938 0.4375 -0.484375 C 0.488281 -0.390625 0.5625 -0.316406 0.65625 -0.265625 C 0.757812 -0.210938 0.878906 -0.1875 1.015625 -0.1875 C 1.140625 -0.1875 1.25 -0.210938 1.34375 -0.265625 C 1.445312 -0.316406 1.523438 -0.390625 1.578125 -0.484375 C 1.640625 -0.585938 1.671875 -0.707031 1.671875 -0.84375 C 1.671875 -0.976562 1.640625 -1.09375 1.578125 -1.1875 C 1.523438 -1.28125 1.445312 -1.351562 1.34375 -1.40625 C 1.25 -1.46875 1.140625 -1.5 1.015625 -1.5 C 0.878906 -1.5 0.757812 -1.46875 0.65625 -1.40625 C 0.5625 -1.351562 0.488281 -1.28125 0.4375 -1.1875 C 0.382812 -1.09375 0.359375 -0.976562 0.359375 -0.84375 Z M 0.359375 -0.84375 "/></g></g></g><g fill="#fefefe" fill-opacity="1"><g transform="translate(25.935421, 3.520514)"><g><path d="M 0.25 0 L 0.25 -1.6875 L 0.8125 -1.6875 C 0.9375 -1.6875 1.046875 -1.660156 1.140625 -1.609375 C 1.234375 -1.566406 1.304688 -1.503906 1.359375 -1.421875 C 1.410156 -1.335938 1.4375 -1.238281 1.4375 -1.125 C 1.4375 -1.007812 1.410156 -0.90625 1.359375 -0.8125 C 1.304688 -0.726562 1.234375 -0.660156 1.140625 -0.609375 C 1.046875 -0.566406 0.9375 -0.546875 0.8125 -0.546875 L 0.453125 -0.546875 L 0.453125 0 Z M 0.453125 -0.75 L 0.8125 -0.75 C 1.082031 -0.75 1.21875 -0.867188 1.21875 -1.109375 C 1.21875 -1.359375 1.082031 -1.484375 0.8125 -1.484375 L 0.453125 -1.484375 Z M 0.453125 -0.75 "/></g></g></g><g fill="#fefefe" fill-opacity="1"><g transform="translate(27.437139, 3.520514)"><g><path d="M 0.25 0 L 0.25 -1.6875 L 1.265625 -1.6875 L 1.265625 -1.484375 L 0.453125 -1.484375 L 0.453125 -0.953125 L 1.203125 -0.953125 L 1.203125 -0.765625 L 0.453125 -0.765625 L 0.453125 -0.203125 L 1.296875 -0.203125 L 1.296875 0 Z M 0.25 0 "/></g></g></g><g clip-path="url(#377b4bcb0e)"><g fill="#fefefe" fill-opacity="1"><g transform="translate(28.852218, 3.520514)"><g><path d="M 0.25 0 L 0.25 -1.6875 L 0.890625 -1.6875 C 1.003906 -1.6875 1.101562 -1.660156 1.1875 -1.609375 C 1.28125 -1.566406 1.347656 -1.503906 1.390625 -1.421875 C 1.441406 -1.347656 1.46875 -1.253906 1.46875 -1.140625 C 1.46875 -1.003906 1.429688 -0.890625 1.359375 -0.796875 C 1.285156 -0.710938 1.191406 -0.65625 1.078125 -0.625 L 1.5 0 L 1.234375 0 L 0.828125 -0.609375 L 0.453125 -0.609375 L 0.453125 0 Z M 0.453125 -0.8125 L 0.859375 -0.8125 C 0.984375 -0.8125 1.078125 -0.835938 1.140625 -0.890625 C 1.210938 -0.953125 1.25 -1.035156 1.25 -1.140625 C 1.25 -1.242188 1.210938 -1.328125 1.140625 -1.390625 C 1.078125 -1.453125 0.984375 -1.484375 0.859375 -1.484375 L 0.453125 -1.484375 Z M 0.453125 -0.8125 "/></g></g></g></g></g></g><path stroke-linecap="round" transform="matrix(0.725806, 0.000000000000003387, -0.000000000000003387, 0.725806, 8.461415, 23.058421)" fill="none" stroke-linejoin="miter" d="M 1.000384 1.00128 L 5.090662 1.00128 " stroke="#96feb6" stroke-width="2" stroke-opacity="1" stroke-miterlimit="4"/></svg>